<?xml version="1.0" encoding="UTF-8"?>
<svg width="22px" height="22px" viewBox="0 0 22 22" version="1.1" xmlns="http://www.w3.org/2000/svg" xmlns:xlink="http://www.w3.org/1999/xlink">
    <!-- Generator: sketchtool 51.3 (57544) - http://www.bohemiancoding.com/sketch -->
    <title>688F95B2-5BB9-4757-961B-68518DC46793</title>
    <desc>Created with sketchtool.</desc>
    <defs></defs>
    <g id="Page-1" stroke="none" stroke-width="1" fill="none" fill-rule="evenodd">
        <g id="SideBar" transform="translate(-441.000000, -949.000000)">
            <g id="SideBar-V3" transform="translate(424.000000, 287.000000)">
                <g id="Support">
                    <g transform="translate(17.000000, 662.000000)">
                        <circle id="Oval" fill="#868EB7" cx="11" cy="11" r="11"></circle>
                        <path d="M9.592,11.5808 C9.592,10.3664 10.4368,9.7856 11.1408,9.2752 C11.6864,8.888 12.1616,8.5536 12.1616,8.0256 C12.1616,7.48 11.7568,7.0224 10.7888,7.0224 C9.9088,7.0224 9.1696,7.4624 8.624,8.1136 L7.1984,6.512 C8.1312,5.4208 9.5392,4.8048 11.0528,4.8048 C13.3232,4.8048 14.7136,5.9488 14.7136,7.5856 C14.7136,9.0464 13.7632,9.7504 12.936,10.3312 C12.32,10.7888 11.7744,11.176 11.7744,11.8272 C11.7744,12.1088 11.9152,12.408 12.0912,12.5664 L10.1728,13.1296 C9.8032,12.7248 9.592,12.1968 9.592,11.5808 Z M9.592,15.488 C9.592,14.7136 10.2432,14.0624 11.0176,14.0624 C11.792,14.0624 12.4432,14.7136 12.4432,15.488 C12.4432,16.2624 11.792,16.9136 11.0176,16.9136 C10.2432,16.9136 9.592,16.2624 9.592,15.488 Z" id="?" fill="#2D4373"></path>
                    </g>
                </g>
            </g>
        </g>
    </g>
</svg>