<?xml version="1.0" encoding="UTF-8"?>
<svg width="25px" height="14px" viewBox="0 0 25 14" version="1.1" xmlns="http://www.w3.org/2000/svg" xmlns:xlink="http://www.w3.org/1999/xlink">
    <!-- Generator: sketchtool 51.3 (57544) - http://www.bohemiancoding.com/sketch -->
    <title>74144795-4D7D-48A4-8FCF-9A717A497C15</title>
    <desc>Created with sketchtool.</desc>
    <defs></defs>
    <g id="Page-1" stroke="none" stroke-width="1" fill="none" fill-rule="evenodd">
        <g id="SideBar" transform="translate(-440.000000, -496.000000)" fill="#868EB7" fill-rule="nonzero">
            <g id="SideBar-V3" transform="translate(424.000000, 287.000000)">
                <g id="Team">
                    <g transform="translate(16.000000, 209.000000)">
                        <path d="M6.84580991,13.2937481 C6.84580991,13.477772 6.78062208,13.6351295 6.66626803,13.7499694 L6.66576385,13.7504549 L6.66525968,13.7509777 C6.55034532,13.8653879 6.39285681,13.9305196 6.20900041,13.9305196 L0.652566281,13.9305196 C0.469682188,13.9305196 0.311072604,13.864977 0.196027179,13.7499327 C0.0821584839,13.6360453 0.0157944051,13.4787425 0.0157944051,13.2937477 L0.0157944051,12.233451 C0.0157944051,11.3523973 0.395661853,10.4250839 1.05515887,9.74744025 C1.64737689,9.13892065 2.4638772,8.72917725 3.43318803,8.72917725 C4.37119527,8.72917725 5.22656737,9.12401983 5.84653649,9.76198693 C6.46252468,10.395883 6.84581023,11.2695424 6.84581023,12.2334526 L6.84581023,13.2937493 L6.84580991,13.2937481 Z" id="_333147768"></path>
                        <path d="M3.46024792,2.56690995 C4.32529883,2.56690995 5.1093778,2.91774095 5.67737981,3.48445128 C6.24601421,4.05175924 6.59794558,4.83464772 6.59794558,5.69796271 C6.59794558,6.56301362 6.24661024,7.34478434 5.67881693,7.91088916 C5.11059358,8.47739397 4.32593123,8.82710405 3.46024634,8.82710405 C2.59721277,8.82710405 1.81378833,8.47713311 1.24640291,7.91021724 C0.67978585,7.34406657 0.32871296,6.56255987 0.32871296,5.6979548 C0.32871296,4.83439792 0.680010351,4.05184461 1.246795,3.48513901 C1.8139907,2.91803659 2.5971606,2.56690679 3.46024318,2.56690679 L3.46024792,2.56690995 Z" id="_333146352"></path>
                        <path d="M15.1732281,13.3003882 C15.1732281,13.4848596 15.1080962,13.6401649 14.9947502,13.7530808 C14.8805081,13.8668933 14.7237465,13.930512 14.5416845,13.930512 L8.37223763,13.930512 C8.19023099,13.930512 8.033302,13.8668927 7.91885418,13.7530239 C7.80545236,13.6401822 7.74020872,13.484915 7.74020872,13.3003882 L7.74020872,12.1161577 C7.74020872,11.0423609 8.15717883,10.1080642 8.80937483,9.43249171 C9.49473367,8.72261489 10.4396909,8.29897775 11.4344019,8.29897775 C12.5129417,8.29897775 13.412757,8.73544303 14.0606622,9.39665859 C14.7740694,10.1247231 15.1798919,11.1262766 15.1798919,12.1161498 L15.1788649,12.1171582 L15.1722173,13.30038 L15.1732256,13.30038 L15.1732281,13.3003882 Z" id="_333146952"></path>
                        <path d="M11.4410342,1.38934173 C12.3993382,1.38934173 13.268057,1.7771078 13.8966583,2.40573758 C14.523851,3.03287491 14.9120834,3.89973605 14.9120834,4.86034986 C14.9120834,5.81766414 14.5229546,6.68547546 13.8945667,7.31387126 C13.2661788,7.94225915 12.3983453,8.33138803 11.4410295,8.33138803 C10.4803903,8.33138803 9.61340589,7.94311763 8.98611678,7.31592496 C8.35741112,6.68729518 7.96953438,5.81862064 7.96953438,4.86034828 C7.96953438,2.93656895 9.51727384,1.38933382 11.4410389,1.38933382 L11.4410342,1.38934173 Z" id="_333146808"></path>
                        <path d="M24.2998047,13.3003882 C24.2998047,13.4859995 24.2339633,13.6421997 24.117817,13.7557131 C24.0030707,13.8678453 23.845694,13.930512 23.6611103,13.930512 L16.7062912,13.930512 C16.5215953,13.930512 16.3662726,13.8657911 16.2532999,13.753397 C16.1383855,13.6390802 16.0742623,13.4822067 16.0742623,13.3003866 L16.0742623,11.8868131 C16.0742623,10.6688221 16.5455157,9.67148353 17.2486891,8.95412547 C18.0470397,8.13967886 19.1462714,7.68930245 20.193914,7.68930245 L20.1947729,7.68930245 C21.3747458,7.68930245 22.4015651,8.18201143 23.133579,8.95418238 C23.8630996,9.72373838 24.2985767,10.7718615 24.2987997,11.885953 L24.299808,11.885953 L24.299808,11.886812 L24.299808,13.3003855 L24.2998047,13.3003882 Z" id="_333146832"></path>
                        <path d="M20.1553995,0.0137546064 C21.1978817,0.0137546064 22.1425765,0.442395572 22.8269551,1.134608 C23.5103172,1.82583072 23.9331685,2.7799277 23.9331685,3.83190213 C23.9331685,4.880547 23.5098682,5.83209067 22.8257962,6.52168656 C22.1418935,7.21115439 21.1976619,7.63815271 20.1553947,7.63815271 C19.1099988,7.63815271 18.16387,7.21139786 17.4786377,6.52228417 C16.7929421,5.83272307 16.369063,4.88093276 16.369063,3.83189897 C16.369063,2.7795198 16.7928867,1.8248015 17.478508,1.13302385 C18.163568,0.441763177 19.1097411,0.0137577684 20.1553916,0.0137577684 L20.1553995,0.0137546064 Z" id="_333146592"></path>
                    </g>
                </g>
            </g>
        </g>
    </g>
</svg>